<mxfile host="app.diagrams.net" modified="2023-03-24T11:06:06.651Z" agent="5.0 (Macintosh; Intel Mac OS X 10_15_7) AppleWebKit/537.36 (KHTML, like Gecko) Chrome/111.0.0.0 Safari/537.36" version="21.0.10" etag="-fqC8qxlEj4BND5UX3ln" type="github">
  <diagram id="dLsT6jIH5VIg3OpLpuIP" name="Page-1">
    <mxGraphModel dx="2044" dy="754" grid="1" gridSize="10" guides="1" tooltips="1" connect="1" arrows="1" fold="1" page="1" pageScale="1" pageWidth="850" pageHeight="1100" math="0" shadow="0">
      <root>
        <mxCell id="0" />
        <mxCell id="1" parent="0" />
        <mxCell id="DpxDroA3MUpd-SQL_Dhd-1" value="&lt;font style=&quot;font-size: 16px&quot;&gt;EVM&lt;/font&gt;" style="shape=cube;whiteSpace=wrap;html=1;boundedLbl=1;backgroundOutline=1;darkOpacity=0.05;darkOpacity2=0.1;" parent="1" vertex="1">
          <mxGeometry x="160" y="370" width="120" height="80" as="geometry" />
        </mxCell>
        <mxCell id="DpxDroA3MUpd-SQL_Dhd-5" value="&lt;span style=&quot;font-size: 16px&quot;&gt;EVM&lt;/span&gt;" style="shape=cube;whiteSpace=wrap;html=1;boundedLbl=1;backgroundOutline=1;darkOpacity=0.05;darkOpacity2=0.1;" parent="1" vertex="1">
          <mxGeometry x="350" y="370" width="120" height="80" as="geometry" />
        </mxCell>
        <mxCell id="DpxDroA3MUpd-SQL_Dhd-6" value="&lt;span style=&quot;font-size: 16px&quot;&gt;EVM&lt;/span&gt;" style="shape=cube;whiteSpace=wrap;html=1;boundedLbl=1;backgroundOutline=1;darkOpacity=0.05;darkOpacity2=0.1;" parent="1" vertex="1">
          <mxGeometry x="540" y="370" width="120" height="80" as="geometry" />
        </mxCell>
        <mxCell id="DpxDroA3MUpd-SQL_Dhd-7" value="&lt;span style=&quot;font-size: 16px&quot;&gt;EVM&lt;/span&gt;" style="shape=cube;whiteSpace=wrap;html=1;boundedLbl=1;backgroundOutline=1;darkOpacity=0.05;darkOpacity2=0.1;" parent="1" vertex="1">
          <mxGeometry x="730" y="370" width="120" height="80" as="geometry" />
        </mxCell>
        <mxCell id="DpxDroA3MUpd-SQL_Dhd-8" value="&lt;font style=&quot;font-size: 16px&quot;&gt;PoS&lt;/font&gt;" style="shape=cube;whiteSpace=wrap;html=1;boundedLbl=1;backgroundOutline=1;darkOpacity=0.05;darkOpacity2=0.1;" parent="1" vertex="1">
          <mxGeometry x="160" y="280" width="120" height="60" as="geometry" />
        </mxCell>
        <mxCell id="DpxDroA3MUpd-SQL_Dhd-9" value="&lt;span style=&quot;font-size: 16px&quot;&gt;PoS&lt;/span&gt;" style="shape=cube;whiteSpace=wrap;html=1;boundedLbl=1;backgroundOutline=1;darkOpacity=0.05;darkOpacity2=0.1;" parent="1" vertex="1">
          <mxGeometry x="350" y="280" width="120" height="60" as="geometry" />
        </mxCell>
        <mxCell id="DpxDroA3MUpd-SQL_Dhd-10" value="&lt;span style=&quot;font-size: 16px&quot;&gt;PoS&lt;/span&gt;" style="shape=cube;whiteSpace=wrap;html=1;boundedLbl=1;backgroundOutline=1;darkOpacity=0.05;darkOpacity2=0.1;" parent="1" vertex="1">
          <mxGeometry x="540" y="280" width="120" height="60" as="geometry" />
        </mxCell>
        <mxCell id="DpxDroA3MUpd-SQL_Dhd-11" value="&lt;span style=&quot;font-size: 16px&quot;&gt;PoS&lt;/span&gt;" style="shape=cube;whiteSpace=wrap;html=1;boundedLbl=1;backgroundOutline=1;darkOpacity=0.05;darkOpacity2=0.1;" parent="1" vertex="1">
          <mxGeometry x="730" y="280" width="120" height="60" as="geometry" />
        </mxCell>
        <mxCell id="DpxDroA3MUpd-SQL_Dhd-15" value="" style="endArrow=classic;html=1;rounded=0;strokeWidth=1.5;fontSize=16;exitX=-0.021;exitY=0.525;exitDx=0;exitDy=0;exitPerimeter=0;" parent="1" edge="1">
          <mxGeometry width="50" height="50" relative="1" as="geometry">
            <mxPoint x="540" y="409.5" as="sourcePoint" />
            <mxPoint x="472.52" y="409.5" as="targetPoint" />
          </mxGeometry>
        </mxCell>
        <mxCell id="DpxDroA3MUpd-SQL_Dhd-16" value="" style="endArrow=classic;html=1;rounded=0;strokeWidth=1.5;fontSize=16;exitX=-0.021;exitY=0.525;exitDx=0;exitDy=0;exitPerimeter=0;" parent="1" edge="1">
          <mxGeometry width="50" height="50" relative="1" as="geometry">
            <mxPoint x="350" y="409.5" as="sourcePoint" />
            <mxPoint x="282.52" y="409.5" as="targetPoint" />
          </mxGeometry>
        </mxCell>
        <mxCell id="DpxDroA3MUpd-SQL_Dhd-17" value="" style="endArrow=classic;html=1;rounded=0;strokeWidth=1.5;fontSize=16;exitX=-0.021;exitY=0.525;exitDx=0;exitDy=0;exitPerimeter=0;" parent="1" edge="1">
          <mxGeometry width="50" height="50" relative="1" as="geometry">
            <mxPoint x="730" y="409.5" as="sourcePoint" />
            <mxPoint x="662.52" y="409.5" as="targetPoint" />
          </mxGeometry>
        </mxCell>
        <mxCell id="DpxDroA3MUpd-SQL_Dhd-18" value="" style="endArrow=classic;html=1;rounded=0;strokeWidth=1.5;fontSize=16;exitX=-0.021;exitY=0.525;exitDx=0;exitDy=0;exitPerimeter=0;" parent="1" edge="1">
          <mxGeometry width="50" height="50" relative="1" as="geometry">
            <mxPoint x="730" y="309.5" as="sourcePoint" />
            <mxPoint x="662.52" y="309.5" as="targetPoint" />
          </mxGeometry>
        </mxCell>
        <mxCell id="DpxDroA3MUpd-SQL_Dhd-19" value="" style="endArrow=classic;html=1;rounded=0;strokeWidth=1.5;fontSize=16;exitX=-0.021;exitY=0.525;exitDx=0;exitDy=0;exitPerimeter=0;" parent="1" edge="1">
          <mxGeometry width="50" height="50" relative="1" as="geometry">
            <mxPoint x="540" y="309.5" as="sourcePoint" />
            <mxPoint x="472.52" y="309.5" as="targetPoint" />
          </mxGeometry>
        </mxCell>
        <mxCell id="DpxDroA3MUpd-SQL_Dhd-20" value="" style="endArrow=classic;html=1;rounded=0;strokeWidth=1.5;fontSize=16;exitX=-0.021;exitY=0.525;exitDx=0;exitDy=0;exitPerimeter=0;" parent="1" edge="1">
          <mxGeometry width="50" height="50" relative="1" as="geometry">
            <mxPoint x="350" y="309.5" as="sourcePoint" />
            <mxPoint x="282.52" y="309.5" as="targetPoint" />
          </mxGeometry>
        </mxCell>
        <mxCell id="DpxDroA3MUpd-SQL_Dhd-22" value="" style="endArrow=none;html=1;rounded=0;strokeWidth=1.5;fontSize=16;strokeColor=#FF6666;entryX=0;entryY=0;entryDx=70;entryDy=60;entryPerimeter=0;" parent="1" target="DpxDroA3MUpd-SQL_Dhd-8" edge="1">
          <mxGeometry width="50" height="50" relative="1" as="geometry">
            <mxPoint x="230" y="379.04" as="sourcePoint" />
            <mxPoint x="230" y="350" as="targetPoint" />
          </mxGeometry>
        </mxCell>
        <mxCell id="DpxDroA3MUpd-SQL_Dhd-23" value="" style="endArrow=none;html=1;rounded=0;strokeWidth=1.5;fontSize=16;strokeColor=#FF6666;entryX=0;entryY=0;entryDx=70;entryDy=60;entryPerimeter=0;" parent="1" edge="1">
          <mxGeometry width="50" height="50" relative="1" as="geometry">
            <mxPoint x="420" y="379.03999999999996" as="sourcePoint" />
            <mxPoint x="420" y="340" as="targetPoint" />
          </mxGeometry>
        </mxCell>
        <mxCell id="DpxDroA3MUpd-SQL_Dhd-24" value="" style="endArrow=none;html=1;rounded=0;strokeWidth=1.5;fontSize=16;strokeColor=#FF6666;entryX=0;entryY=0;entryDx=70;entryDy=60;entryPerimeter=0;" parent="1" edge="1">
          <mxGeometry width="50" height="50" relative="1" as="geometry">
            <mxPoint x="610" y="379.03999999999996" as="sourcePoint" />
            <mxPoint x="610" y="340" as="targetPoint" />
          </mxGeometry>
        </mxCell>
        <mxCell id="DpxDroA3MUpd-SQL_Dhd-25" value="" style="endArrow=none;html=1;rounded=0;strokeWidth=1.5;fontSize=16;strokeColor=#FF6666;entryX=0;entryY=0;entryDx=70;entryDy=60;entryPerimeter=0;" parent="1" edge="1">
          <mxGeometry width="50" height="50" relative="1" as="geometry">
            <mxPoint x="800" y="379.03999999999996" as="sourcePoint" />
            <mxPoint x="800" y="340" as="targetPoint" />
          </mxGeometry>
        </mxCell>
        <mxCell id="DpxDroA3MUpd-SQL_Dhd-26" value="&lt;font style=&quot;font-size: 12px;&quot;&gt;Engine API&lt;/font&gt;" style="text;html=1;strokeColor=none;fillColor=none;align=center;verticalAlign=middle;whiteSpace=wrap;rounded=0;fontSize=16;" parent="1" vertex="1">
          <mxGeometry x="260" y="350" width="100" height="20" as="geometry" />
        </mxCell>
        <mxCell id="DpxDroA3MUpd-SQL_Dhd-27" value="&lt;font style=&quot;font-size: 12px;&quot;&gt;Engine API&lt;/font&gt;" style="text;html=1;strokeColor=none;fillColor=none;align=center;verticalAlign=middle;whiteSpace=wrap;rounded=0;fontSize=16;" parent="1" vertex="1">
          <mxGeometry x="450" y="350" width="100" height="20" as="geometry" />
        </mxCell>
        <mxCell id="DpxDroA3MUpd-SQL_Dhd-28" value="&lt;font style=&quot;font-size: 12px;&quot;&gt;Engine API&lt;/font&gt;" style="text;html=1;strokeColor=none;fillColor=none;align=center;verticalAlign=middle;whiteSpace=wrap;rounded=0;fontSize=16;" parent="1" vertex="1">
          <mxGeometry x="640" y="350" width="100" height="20" as="geometry" />
        </mxCell>
        <mxCell id="DpxDroA3MUpd-SQL_Dhd-29" value="&lt;font style=&quot;font-size: 16px;&quot;&gt;CL&lt;br&gt;Consensus Layer&lt;/font&gt;" style="text;html=1;strokeColor=none;fillColor=none;align=center;verticalAlign=middle;whiteSpace=wrap;rounded=0;fontSize=12;" parent="1" vertex="1">
          <mxGeometry y="295" width="150" height="30" as="geometry" />
        </mxCell>
        <mxCell id="DpxDroA3MUpd-SQL_Dhd-30" value="&lt;font style=&quot;font-size: 16px;&quot;&gt;EL&lt;br&gt;Execution Layer&lt;/font&gt;" style="text;html=1;strokeColor=none;fillColor=none;align=center;verticalAlign=middle;whiteSpace=wrap;rounded=0;fontSize=12;" parent="1" vertex="1">
          <mxGeometry y="395" width="150" height="30" as="geometry" />
        </mxCell>
        <mxCell id="CBrxlTjuPh4eXbc6q4Go-2" value="&lt;font style=&quot;font-size: 16px&quot;&gt;EVM&lt;/font&gt;" style="shape=cube;whiteSpace=wrap;html=1;boundedLbl=1;backgroundOutline=1;darkOpacity=0.05;darkOpacity2=0.1;" vertex="1" parent="1">
          <mxGeometry x="160" y="80" width="120" height="80" as="geometry" />
        </mxCell>
        <mxCell id="2" value="&lt;font style=&quot;font-size: 16px&quot;&gt;PoW&lt;/font&gt;" style="shape=cube;whiteSpace=wrap;html=1;boundedLbl=1;backgroundOutline=1;darkOpacity=0.05;darkOpacity2=0.1;" parent="1" vertex="1">
          <mxGeometry x="160" y="40" width="120" height="60" as="geometry" />
        </mxCell>
        <mxCell id="CBrxlTjuPh4eXbc6q4Go-3" value="&lt;font style=&quot;font-size: 16px&quot;&gt;EVM&lt;/font&gt;" style="shape=cube;whiteSpace=wrap;html=1;boundedLbl=1;backgroundOutline=1;darkOpacity=0.05;darkOpacity2=0.1;" vertex="1" parent="1">
          <mxGeometry x="350" y="80" width="120" height="80" as="geometry" />
        </mxCell>
        <mxCell id="CBrxlTjuPh4eXbc6q4Go-4" value="&lt;font style=&quot;font-size: 16px&quot;&gt;PoW&lt;/font&gt;" style="shape=cube;whiteSpace=wrap;html=1;boundedLbl=1;backgroundOutline=1;darkOpacity=0.05;darkOpacity2=0.1;" vertex="1" parent="1">
          <mxGeometry x="350" y="40" width="120" height="60" as="geometry" />
        </mxCell>
        <mxCell id="CBrxlTjuPh4eXbc6q4Go-5" value="&lt;font style=&quot;font-size: 16px&quot;&gt;EVM&lt;/font&gt;" style="shape=cube;whiteSpace=wrap;html=1;boundedLbl=1;backgroundOutline=1;darkOpacity=0.05;darkOpacity2=0.1;" vertex="1" parent="1">
          <mxGeometry x="540" y="80" width="120" height="80" as="geometry" />
        </mxCell>
        <mxCell id="CBrxlTjuPh4eXbc6q4Go-6" value="&lt;font style=&quot;font-size: 16px&quot;&gt;PoW&lt;/font&gt;" style="shape=cube;whiteSpace=wrap;html=1;boundedLbl=1;backgroundOutline=1;darkOpacity=0.05;darkOpacity2=0.1;" vertex="1" parent="1">
          <mxGeometry x="540" y="40" width="120" height="60" as="geometry" />
        </mxCell>
        <mxCell id="CBrxlTjuPh4eXbc6q4Go-7" value="&lt;font style=&quot;font-size: 16px&quot;&gt;EVM&lt;/font&gt;" style="shape=cube;whiteSpace=wrap;html=1;boundedLbl=1;backgroundOutline=1;darkOpacity=0.05;darkOpacity2=0.1;" vertex="1" parent="1">
          <mxGeometry x="730" y="80" width="120" height="80" as="geometry" />
        </mxCell>
        <mxCell id="CBrxlTjuPh4eXbc6q4Go-8" value="&lt;font style=&quot;font-size: 16px&quot;&gt;PoW&lt;/font&gt;" style="shape=cube;whiteSpace=wrap;html=1;boundedLbl=1;backgroundOutline=1;darkOpacity=0.05;darkOpacity2=0.1;" vertex="1" parent="1">
          <mxGeometry x="730" y="40" width="120" height="60" as="geometry" />
        </mxCell>
        <mxCell id="CBrxlTjuPh4eXbc6q4Go-9" value="" style="endArrow=classic;html=1;rounded=0;strokeWidth=1.5;fontSize=16;exitX=-0.021;exitY=0.525;exitDx=0;exitDy=0;exitPerimeter=0;" edge="1" parent="1">
          <mxGeometry width="50" height="50" relative="1" as="geometry">
            <mxPoint x="350" y="110" as="sourcePoint" />
            <mxPoint x="282.52" y="110" as="targetPoint" />
          </mxGeometry>
        </mxCell>
        <mxCell id="CBrxlTjuPh4eXbc6q4Go-10" value="" style="endArrow=classic;html=1;rounded=0;strokeWidth=1.5;fontSize=16;exitX=-0.021;exitY=0.525;exitDx=0;exitDy=0;exitPerimeter=0;" edge="1" parent="1">
          <mxGeometry width="50" height="50" relative="1" as="geometry">
            <mxPoint x="540" y="110" as="sourcePoint" />
            <mxPoint x="472.52" y="110" as="targetPoint" />
          </mxGeometry>
        </mxCell>
        <mxCell id="CBrxlTjuPh4eXbc6q4Go-11" value="" style="endArrow=classic;html=1;rounded=0;strokeWidth=1.5;fontSize=16;exitX=-0.021;exitY=0.525;exitDx=0;exitDy=0;exitPerimeter=0;" edge="1" parent="1">
          <mxGeometry width="50" height="50" relative="1" as="geometry">
            <mxPoint x="730" y="110" as="sourcePoint" />
            <mxPoint x="662.52" y="110" as="targetPoint" />
          </mxGeometry>
        </mxCell>
        <mxCell id="CBrxlTjuPh4eXbc6q4Go-12" value="&lt;span style=&quot;font-size: 16px;&quot;&gt;Monolithic Chain&lt;/span&gt;" style="text;html=1;strokeColor=none;fillColor=none;align=center;verticalAlign=middle;whiteSpace=wrap;rounded=0;fontSize=12;" vertex="1" parent="1">
          <mxGeometry x="20" y="90" width="120" height="30" as="geometry" />
        </mxCell>
        <mxCell id="CBrxlTjuPh4eXbc6q4Go-13" value="&lt;font style=&quot;font-size: 20px;&quot;&gt;PoW Ethereum&lt;/font&gt;" style="text;html=1;strokeColor=none;fillColor=none;align=center;verticalAlign=middle;whiteSpace=wrap;rounded=0;" vertex="1" parent="1">
          <mxGeometry x="-150" y="90" width="170" height="30" as="geometry" />
        </mxCell>
        <mxCell id="CBrxlTjuPh4eXbc6q4Go-14" value="&lt;font style=&quot;font-size: 20px;&quot;&gt;PoS Ethereum&lt;/font&gt;" style="text;html=1;strokeColor=none;fillColor=none;align=center;verticalAlign=middle;whiteSpace=wrap;rounded=0;" vertex="1" parent="1">
          <mxGeometry x="-150" y="350" width="170" height="30" as="geometry" />
        </mxCell>
      </root>
    </mxGraphModel>
  </diagram>
</mxfile>
